<svg data-v-423bf9ae="" xmlns="http://www.w3.org/2000/svg" viewBox="0 0 61.67342136226957 60" class="icon"><!----><!----><!----><!----><g data-v-423bf9ae="" id="c1b9c89e-a6c9-4e64-bd6b-125b425f25ad" transform="matrix(0.66936856508255,0,0,0.66936856508255,-2.63041090965271,-3.467120885848999)" stroke="none" fill="white"><path d="M96.068 48.75c0-5.145-3.906-9.391-8.907-9.937l-4.485-9.196a8.709 8.709 0 0 0 1.944-5.487c0-4.824-3.926-8.75-8.75-8.75-1.81 0-3.491.552-4.888 1.495l-10.974-5.353c-.128-.062-.26-.098-.392-.144-1.095-3.583-4.432-6.197-8.367-6.197-3.944 0-7.284 2.624-8.373 6.216-.18.055-.359.112-.533.197l-7.127 3.476c-2.242-2.126-5.261-3.44-8.587-3.44-6.893 0-12.5 5.607-12.5 12.5 0 3.579 1.521 6.803 3.939 9.083l-1.484 3.045c-.051 0-.102-.008-.153-.008-6.893 0-12.5 5.607-12.5 12.5s5.607 12.5 12.5 12.5c.052 0 .102-.007.153-.008l2.057 4.217a11.21 11.21 0 0 0-3.262 7.91c0 6.203 5.046 11.25 11.25 11.25 2.824 0 5.402-1.054 7.38-2.779l5.429 2.647c.201.099.41.162.619.219.572 5.671 5.373 10.112 11.193 10.112 5.829 0 10.636-4.459 11.192-10.145.271-.059.538-.147.798-.273l6.48-3.16a9.937 9.937 0 0 0 6.149 2.13c5.514 0 10.001-4.486 10.001-10.001 0-2.58-.992-4.928-2.603-6.703l3.891-7.979c5.003-.545 8.91-4.792 8.91-9.937zm-7.055 0a2.948 2.948 0 0 1-2.945 2.945 2.948 2.948 0 0 1-2.944-2.945 2.948 2.948 0 0 1 2.944-2.944 2.949 2.949 0 0 1 2.945 2.944zM75.87 22.436c.934 0 1.694.76 1.694 1.694 0 .934-.761 1.694-1.694 1.694a1.696 1.696 0 0 1-1.695-1.694c0-.935.76-1.694 1.695-1.694zM51.25 12.237c.934 0 1.694.761 1.694 1.695s-.761 1.693-1.694 1.693c-.935 0-1.695-.76-1.695-1.693 0-.934.76-1.695 1.695-1.695zm-24.621 6.449c3.001 0 5.444 2.442 5.444 5.444s-2.443 5.443-5.444 5.443c-3.002 0-5.444-2.441-5.444-5.443s2.442-5.444 5.444-5.444zM10.987 48.75c0-3.002 2.443-5.444 5.445-5.444s5.444 2.442 5.444 5.444-2.442 5.444-5.444 5.444-5.445-2.442-5.445-5.444zm15.642 28.813c-2.313 0-4.195-1.882-4.195-4.194s1.882-4.194 4.195-4.194c2.312 0 4.194 1.882 4.194 4.194s-1.881 4.194-4.194 4.194zm24.621 10.2c-2.313 0-4.195-1.882-4.195-4.194s1.882-4.194 4.195-4.194c2.312 0 4.194 1.882 4.194 4.194s-1.882 4.194-4.194 4.194zm9.591-10.042c-1.979-3.233-5.532-5.402-9.591-5.402-4.061 0-7.614 2.169-9.593 5.402l-4.038-1.969c.167-.77.259-1.565.259-2.383 0-6.202-5.046-11.249-11.25-11.249-.579 0-1.142.058-1.698.142l-1.53-3.141c3.333-2.247 5.53-6.058 5.53-10.371 0-4.314-2.197-8.124-5.531-10.371l.959-1.967a12.4 12.4 0 0 0 2.271.217c6.893 0 12.5-5.607 12.5-12.499 0-1.015-.135-1.995-.364-2.94l5.145-2.509c1.562 2.404 4.265 4.001 7.34 4.001 3.073 0 5.777-1.597 7.339-4.002l8.629 4.209a8.598 8.598 0 0 0-.099 1.241c0 4.824 3.926 8.749 8.751 8.749.18 0 .356-.016.533-.026l3.809 7.809c-2.506 1.818-4.145 4.763-4.145 8.089s1.639 6.271 4.145 8.089l-3.219 6.599a10.153 10.153 0 0 0-1.123-.067c-5.515 0-10.001 4.485-10.001 9.999 0 .62.065 1.226.174 1.815l-5.202 2.535zm15.029-1.406a2.949 2.949 0 0 1-2.946-2.946 2.947 2.947 0 0 1 2.946-2.943 2.947 2.947 0 0 1 2.945 2.943 2.948 2.948 0 0 1-2.945 2.946z"></path></g><!----></svg>