<svg data-v-423bf9ae="" xmlns="http://www.w3.org/2000/svg" viewBox="0 0 272.10024516480524 163" class="iconAbove"><!----><!----><!----><g data-v-423bf9ae="" id="8855a11c-1958-4a71-98d9-282290ac3e9f" fill="#004578" transform="matrix(4.184145927429199,0,0,4.184145927429199,-2.1737892627716064,97.68809509277344)"><path d="M5.99 6.15L5.99 6.15Q6.30 6.15 6.50 6.33L6.50 6.33L6.50 6.33Q6.71 6.52 6.71 6.82L6.71 6.82L6.71 6.82Q6.71 7.11 6.50 7.30L6.50 7.30L6.50 7.30Q6.30 7.49 5.99 7.49L5.99 7.49L1.97 7.49L1.97 11.61L1.97 11.61Q1.97 11.91 1.76 12.12L1.76 12.12L1.76 12.12Q1.55 12.33 1.25 12.33L1.25 12.33L1.25 12.33Q0.94 12.33 0.73 12.12L0.73 12.12L0.73 12.12Q0.52 11.91 0.52 11.61L0.52 11.61L0.52 2.13L0.52 2.13Q0.52 1.81 0.73 1.60L0.73 1.60L0.73 1.60Q0.94 1.40 1.25 1.40L1.25 1.40L7.57 1.40L7.57 1.40Q7.90 1.40 8.09 1.59L8.09 1.59L8.09 1.59Q8.29 1.78 8.29 2.09L8.29 2.09L8.29 2.09Q8.29 2.38 8.09 2.56L8.09 2.56L8.09 2.56Q7.90 2.74 7.57 2.74L7.57 2.74L1.97 2.74L1.97 6.15L5.99 6.15ZM13.48 4.62L13.48 4.62Q14.56 4.62 15.44 5.13L15.44 5.13L15.44 5.13Q16.31 5.64 16.82 6.53L16.82 6.53L16.82 6.53Q17.33 7.42 17.33 8.51L17.33 8.51L17.33 11.63L17.33 11.63Q17.33 11.94 17.13 12.14L17.13 12.14L17.13 12.14Q16.93 12.35 16.62 12.35L16.62 12.35L16.62 12.35Q16.31 12.35 16.11 12.14L16.11 12.14L16.11 12.14Q15.90 11.94 15.90 11.63L15.90 11.63L15.90 11.12L15.90 11.12Q15.41 11.72 14.71 12.05L14.71 12.05L14.71 12.05Q14.01 12.39 13.20 12.39L13.20 12.39L13.20 12.39Q12.19 12.39 11.38 11.89L11.38 11.89L11.38 11.89Q10.56 11.38 10.09 10.49L10.09 10.49L10.09 10.49Q9.62 9.60 9.62 8.51L9.62 8.51L9.62 8.51Q9.62 7.42 10.12 6.53L10.12 6.53L10.12 6.53Q10.63 5.64 11.52 5.13L11.52 5.13L11.52 5.13Q12.40 4.62 13.48 4.62L13.48 4.62ZM13.48 11.13L13.48 11.13Q14.18 11.13 14.75 10.79L14.75 10.79L14.75 10.79Q15.32 10.44 15.64 9.85L15.64 9.85L15.64 9.85Q15.96 9.25 15.96 8.51L15.96 8.51L15.96 8.51Q15.96 7.77 15.64 7.17L15.64 7.17L15.64 7.17Q15.32 6.57 14.75 6.22L14.75 6.22L14.75 6.22Q14.18 5.88 13.48 5.88L13.48 5.88L13.48 5.88Q12.78 5.88 12.21 6.22L12.21 6.22L12.21 6.22Q11.65 6.57 11.32 7.17L11.32 7.17L11.32 7.17Q10.99 7.77 10.99 8.51L10.99 8.51L10.99 8.51Q10.99 9.25 11.32 9.85L11.32 9.85L11.32 9.85Q11.65 10.44 12.21 10.79L12.21 10.79L12.21 10.79Q12.78 11.13 13.48 11.13L13.48 11.13ZM22.93 4.62L22.93 4.62Q24.01 4.62 24.89 5.13L24.89 5.13L24.89 5.13Q25.76 5.64 26.27 6.53L26.27 6.53L26.27 6.53Q26.78 7.42 26.78 8.51L26.78 8.51L26.78 11.63L26.78 11.63Q26.78 11.94 26.58 12.14L26.58 12.14L26.58 12.14Q26.38 12.35 26.07 12.35L26.07 12.35L26.07 12.35Q25.76 12.35 25.56 12.14L25.56 12.14L25.56 12.14Q25.35 11.94 25.35 11.63L25.35 11.63L25.35 11.12L25.35 11.12Q24.86 11.72 24.16 12.05L24.16 12.05L24.16 12.05Q23.46 12.39 22.65 12.39L22.65 12.39L22.65 12.39Q21.64 12.39 20.83 11.89L20.83 11.89L20.83 11.89Q20.01 11.38 19.54 10.49L19.54 10.49L19.54 10.49Q19.07 9.60 19.07 8.51L19.07 8.51L19.07 8.51Q19.07 7.42 19.57 6.53L19.57 6.53L19.57 6.53Q20.08 5.64 20.97 5.13L20.97 5.13L20.97 5.13Q21.85 4.62 22.93 4.62L22.93 4.62ZM22.93 11.13L22.93 11.13Q23.63 11.13 24.20 10.79L24.20 10.79L24.20 10.79Q24.77 10.44 25.09 9.85L25.09 9.85L25.09 9.85Q25.41 9.25 25.41 8.51L25.41 8.51L25.41 8.51Q25.41 7.77 25.09 7.17L25.09 7.17L25.09 7.17Q24.77 6.57 24.20 6.22L24.20 6.22L24.20 6.22Q23.63 5.88 22.93 5.88L22.93 5.88L22.93 5.88Q22.23 5.88 21.67 6.22L21.67 6.22L21.67 6.22Q21.10 6.57 20.77 7.17L20.77 7.17L20.77 7.17Q20.44 7.77 20.44 8.51L20.44 8.51L20.44 8.51Q20.44 9.25 20.77 9.85L20.77 9.85L20.77 9.85Q21.10 10.44 21.67 10.79L21.67 10.79L21.67 10.79Q22.23 11.13 22.93 11.13L22.93 11.13ZM32.72 1.27L32.72 1.27Q33.92 1.27 34.75 1.76L34.75 1.76L34.75 1.76Q35.57 2.25 36.15 3.16L36.15 3.16L36.15 3.16Q36.32 3.43 36.32 3.67L36.32 3.67L36.32 3.67Q36.32 3.98 36.04 4.17L36.04 4.17L36.04 4.17Q35.88 4.27 35.67 4.27L35.67 4.27L35.67 4.27Q35.46 4.27 35.28 4.16L35.28 4.16L35.28 4.16Q35.10 4.06 35.00 3.88L35.00 3.88L35.00 3.88Q34.62 3.25 34.06 2.92L34.06 2.92L34.06 2.92Q33.49 2.59 32.62 2.59L32.62 2.59L32.62 2.59Q31.56 2.59 30.90 3.00L30.90 3.00L30.90 3.00Q30.24 3.42 30.24 4.20L30.24 4.20L30.24 4.20Q30.24 4.93 30.83 5.42L30.83 5.42L30.83 5.42Q31.42 5.91 32.93 6.06L32.93 6.06L32.93 6.06Q34.61 6.23 35.53 7.08L35.53 7.08L35.53 7.08Q36.46 7.92 36.46 9.31L36.46 9.31L36.46 9.31Q36.46 10.32 35.91 11.04L35.91 11.04L35.91 11.04Q35.36 11.76 34.46 12.12L34.46 12.12L34.46 12.12Q33.56 12.47 32.52 12.47L32.52 12.47L32.52 12.47Q31.16 12.47 30.05 11.86L30.05 11.86L30.05 11.86Q28.94 11.24 28.52 10.25L28.52 10.25L28.52 10.25Q28.45 10.08 28.45 9.97L28.45 9.97L28.45 9.97Q28.45 9.76 28.60 9.60L28.60 9.60L28.60 9.60Q28.76 9.44 29.02 9.38L29.02 9.38L29.02 9.38Q29.06 9.37 29.16 9.37L29.16 9.37L29.16 9.37Q29.39 9.37 29.59 9.50L29.59 9.50L29.59 9.50Q29.79 9.63 29.89 9.86L29.89 9.86L29.89 9.86Q30.14 10.40 30.88 10.78L30.88 10.78L30.88 10.78Q31.63 11.16 32.52 11.16L32.52 11.16L32.52 11.16Q33.57 11.16 34.30 10.67L34.30 10.67L34.30 10.67Q35.03 10.19 35.03 9.35L35.03 9.35L35.03 9.35Q35.03 8.55 34.41 7.99L34.41 7.99L34.41 7.99Q33.80 7.42 32.54 7.29L32.54 7.29L32.54 7.29Q30.80 7.13 29.81 6.28L29.81 6.28L29.81 6.28Q28.81 5.43 28.81 4.16L28.81 4.16L28.81 4.16Q28.81 3.26 29.32 2.61L29.32 2.61L29.32 2.61Q29.83 1.96 30.72 1.62L30.72 1.62L30.72 1.62Q31.61 1.27 32.72 1.27L32.72 1.27ZM42.01 4.62L42.01 4.62Q43.09 4.62 43.97 5.13L43.97 5.13L43.97 5.13Q44.84 5.64 45.35 6.53L45.35 6.53L45.35 6.53Q45.86 7.42 45.86 8.51L45.86 8.51L45.86 11.63L45.86 11.63Q45.86 11.94 45.66 12.14L45.66 12.14L45.66 12.14Q45.46 12.35 45.15 12.35L45.15 12.35L45.15 12.35Q44.84 12.35 44.64 12.14L44.64 12.14L44.64 12.14Q44.44 11.94 44.44 11.63L44.44 11.63L44.44 11.12L44.44 11.12Q43.95 11.72 43.25 12.05L43.25 12.05L43.25 12.05Q42.55 12.39 41.73 12.39L41.73 12.39L41.73 12.39Q40.73 12.39 39.91 11.89L39.91 11.89L39.91 11.89Q39.09 11.38 38.62 10.49L38.62 10.49L38.62 10.49Q38.15 9.60 38.15 8.51L38.15 8.51L38.15 8.51Q38.15 7.42 38.65 6.53L38.65 6.53L38.65 6.53Q39.16 5.64 40.05 5.13L40.05 5.13L40.05 5.13Q40.94 4.62 42.01 4.62L42.01 4.62ZM42.01 11.13L42.01 11.13Q42.71 11.13 43.28 10.79L43.28 10.79L43.28 10.79Q43.85 10.44 44.17 9.85L44.17 9.85L44.17 9.85Q44.49 9.25 44.49 8.51L44.49 8.51L44.49 8.51Q44.49 7.77 44.17 7.17L44.17 7.17L44.17 7.17Q43.85 6.57 43.28 6.22L43.28 6.22L43.28 6.22Q42.71 5.88 42.01 5.88L42.01 5.88L42.01 5.88Q41.31 5.88 40.75 6.22L40.75 6.22L40.75 6.22Q40.18 6.57 39.85 7.17L39.85 7.17L39.85 7.17Q39.52 7.77 39.52 8.51L39.52 8.51L39.52 8.51Q39.52 9.25 39.85 9.85L39.85 9.85L39.85 9.85Q40.18 10.44 40.75 10.79L40.75 10.79L40.75 10.79Q41.31 11.13 42.01 11.13L42.01 11.13ZM51.84 4.62L51.84 4.62Q52.92 4.62 53.81 5.13L53.81 5.13L53.81 5.13Q54.70 5.64 55.20 6.53L55.20 6.53L55.20 6.53Q55.71 7.42 55.71 8.51L55.71 8.51L55.71 8.51Q55.71 9.60 55.24 10.49L55.24 10.49L55.24 10.49Q54.77 11.38 53.95 11.89L53.95 11.89L53.95 11.89Q53.13 12.39 52.12 12.39L52.12 12.39L52.12 12.39Q51.31 12.39 50.61 12.05L50.61 12.05L50.61 12.05Q49.91 11.72 49.42 11.12L49.42 11.12L49.42 14.90L49.42 14.90Q49.42 15.22 49.22 15.41L49.22 15.41L49.22 15.41Q49.03 15.61 48.71 15.61L48.71 15.61L48.71 15.61Q48.40 15.61 48.20 15.41L48.20 15.41L48.20 15.41Q47.99 15.22 47.99 14.90L47.99 14.90L47.99 8.51L47.99 8.51Q47.99 7.42 48.50 6.53L48.50 6.53L48.50 6.53Q49.01 5.64 49.89 5.13L49.89 5.13L49.89 5.13Q50.76 4.62 51.84 4.62L51.84 4.62ZM51.84 11.13L51.84 11.13Q52.54 11.13 53.11 10.79L53.11 10.79L53.11 10.79Q53.68 10.44 54.01 9.85L54.01 9.85L54.01 9.85Q54.33 9.25 54.33 8.51L54.33 8.51L54.33 8.51Q54.33 7.77 54.01 7.17L54.01 7.17L54.01 7.17Q53.68 6.57 53.11 6.22L53.11 6.22L53.11 6.22Q52.54 5.88 51.84 5.88L51.84 5.88L51.84 5.88Q51.14 5.88 50.58 6.22L50.58 6.22L50.58 6.22Q50.01 6.57 49.69 7.17L49.69 7.17L49.69 7.17Q49.36 7.77 49.36 8.51L49.36 8.51L49.36 8.51Q49.36 9.25 49.69 9.85L49.69 9.85L49.69 9.85Q50.01 10.44 50.58 10.79L50.58 10.79L50.58 10.79Q51.14 11.13 51.84 11.13L51.84 11.13ZM61.68 4.62L61.68 4.62Q62.76 4.62 63.65 5.13L63.65 5.13L63.65 5.13Q64.54 5.64 65.04 6.53L65.04 6.53L65.04 6.53Q65.55 7.42 65.55 8.51L65.55 8.51L65.55 8.51Q65.55 9.60 65.08 10.49L65.08 10.49L65.08 10.49Q64.61 11.38 63.79 11.89L63.79 11.89L63.79 11.89Q62.97 12.39 61.96 12.39L61.96 12.39L61.96 12.39Q61.15 12.39 60.45 12.05L60.45 12.05L60.45 12.05Q59.75 11.72 59.26 11.12L59.26 11.12L59.26 14.90L59.26 14.90Q59.26 15.22 59.07 15.41L59.07 15.41L59.07 15.41Q58.87 15.61 58.55 15.61L58.55 15.61L58.55 15.61Q58.24 15.61 58.04 15.41L58.04 15.41L58.04 15.41Q57.83 15.22 57.83 14.90L57.83 14.90L57.83 8.51L57.83 8.51Q57.83 7.42 58.35 6.53L58.35 6.53L58.35 6.53Q58.86 5.64 59.73 5.13L59.73 5.13L59.73 5.13Q60.61 4.62 61.68 4.62L61.68 4.62ZM61.68 11.13L61.68 11.13Q62.38 11.13 62.95 10.79L62.95 10.79L62.95 10.79Q63.52 10.44 63.85 9.85L63.85 9.85L63.85 9.85Q64.18 9.25 64.18 8.51L64.18 8.51L64.18 8.51Q64.18 7.77 63.85 7.17L63.85 7.17L63.85 7.17Q63.52 6.57 62.95 6.22L62.95 6.22L62.95 6.22Q62.38 5.88 61.68 5.88L61.68 5.88L61.68 5.88Q60.98 5.88 60.42 6.22L60.42 6.22L60.42 6.22Q59.85 6.57 59.53 7.17L59.53 7.17L59.53 7.17Q59.21 7.77 59.21 8.51L59.21 8.51L59.21 8.51Q59.21 9.25 59.53 9.85L59.53 9.85L59.53 9.85Q59.85 10.44 60.42 10.79L60.42 10.79L60.42 10.79Q60.98 11.13 61.68 11.13L61.68 11.13Z"></path></g><!----><g data-v-423bf9ae="" id="9865cc47-de95-4c07-97f5-bfb2df8eeb84" transform="matrix(1.004052758216858,0,0,1.004052758216858,86.72901153564453,-5.020989418029785)" stroke="none" fill="#FF950D"><path d="M96.068 48.75c0-5.145-3.906-9.391-8.907-9.937l-4.485-9.196a8.709 8.709 0 0 0 1.944-5.487c0-4.824-3.926-8.75-8.75-8.75-1.81 0-3.491.552-4.888 1.495l-10.974-5.353c-.128-.062-.26-.098-.392-.144-1.095-3.583-4.432-6.197-8.367-6.197-3.944 0-7.284 2.624-8.373 6.216-.18.055-.359.112-.533.197l-7.127 3.476c-2.242-2.126-5.261-3.44-8.587-3.44-6.893 0-12.5 5.607-12.5 12.5 0 3.579 1.521 6.803 3.939 9.083l-1.484 3.045c-.051 0-.102-.008-.153-.008-6.893 0-12.5 5.607-12.5 12.5s5.607 12.5 12.5 12.5c.052 0 .102-.007.153-.008l2.057 4.217a11.21 11.21 0 0 0-3.262 7.91c0 6.203 5.046 11.25 11.25 11.25 2.824 0 5.402-1.054 7.38-2.779l5.429 2.647c.201.099.41.162.619.219.572 5.671 5.373 10.112 11.193 10.112 5.829 0 10.636-4.459 11.192-10.145.271-.059.538-.147.798-.273l6.48-3.16a9.937 9.937 0 0 0 6.149 2.13c5.514 0 10.001-4.486 10.001-10.001 0-2.58-.992-4.928-2.603-6.703l3.891-7.979c5.003-.545 8.91-4.792 8.91-9.937zm-7.055 0a2.948 2.948 0 0 1-2.945 2.945 2.948 2.948 0 0 1-2.944-2.945 2.948 2.948 0 0 1 2.944-2.944 2.949 2.949 0 0 1 2.945 2.944zM75.87 22.436c.934 0 1.694.76 1.694 1.694 0 .934-.761 1.694-1.694 1.694a1.696 1.696 0 0 1-1.695-1.694c0-.935.76-1.694 1.695-1.694zM51.25 12.237c.934 0 1.694.761 1.694 1.695s-.761 1.693-1.694 1.693c-.935 0-1.695-.76-1.695-1.693 0-.934.76-1.695 1.695-1.695zm-24.621 6.449c3.001 0 5.444 2.442 5.444 5.444s-2.443 5.443-5.444 5.443c-3.002 0-5.444-2.441-5.444-5.443s2.442-5.444 5.444-5.444zM10.987 48.75c0-3.002 2.443-5.444 5.445-5.444s5.444 2.442 5.444 5.444-2.442 5.444-5.444 5.444-5.445-2.442-5.445-5.444zm15.642 28.813c-2.313 0-4.195-1.882-4.195-4.194s1.882-4.194 4.195-4.194c2.312 0 4.194 1.882 4.194 4.194s-1.881 4.194-4.194 4.194zm24.621 10.2c-2.313 0-4.195-1.882-4.195-4.194s1.882-4.194 4.195-4.194c2.312 0 4.194 1.882 4.194 4.194s-1.882 4.194-4.194 4.194zm9.591-10.042c-1.979-3.233-5.532-5.402-9.591-5.402-4.061 0-7.614 2.169-9.593 5.402l-4.038-1.969c.167-.77.259-1.565.259-2.383 0-6.202-5.046-11.249-11.25-11.249-.579 0-1.142.058-1.698.142l-1.53-3.141c3.333-2.247 5.53-6.058 5.53-10.371 0-4.314-2.197-8.124-5.531-10.371l.959-1.967a12.4 12.4 0 0 0 2.271.217c6.893 0 12.5-5.607 12.5-12.499 0-1.015-.135-1.995-.364-2.94l5.145-2.509c1.562 2.404 4.265 4.001 7.34 4.001 3.073 0 5.777-1.597 7.339-4.002l8.629 4.209a8.598 8.598 0 0 0-.099 1.241c0 4.824 3.926 8.749 8.751 8.749.18 0 .356-.016.533-.026l3.809 7.809c-2.506 1.818-4.145 4.763-4.145 8.089s1.639 6.271 4.145 8.089l-3.219 6.599a10.153 10.153 0 0 0-1.123-.067c-5.515 0-10.001 4.485-10.001 9.999 0 .62.065 1.226.174 1.815l-5.202 2.535zm15.029-1.406a2.949 2.949 0 0 1-2.946-2.946 2.947 2.947 0 0 1 2.946-2.943 2.947 2.947 0 0 1 2.945 2.943 2.948 2.948 0 0 1-2.945 2.946z"></path></g><!----></svg>